ffmpeg version 4.2.4-1ubuntu0.1 Copyright (c) 2000-2020 the FFmpeg developers
  built with gcc 9 (Ubuntu 9.3.0-10ubuntu2)
  configuration: --prefix=/usr --extra-version=1ubuntu0.1 --toolchain=hardened --libdir=/usr/lib/x86_64-linux-gnu --incdir=/usr/include/x86_64-linux-gnu --arch=amd64 --enable-gpl --disable-stripping --enable-avresample --disable-filter=resample --enable-avisynth --enable-gnutls --enable-ladspa --enable-libaom --enable-libass --enable-libbluray --enable-libbs2b --enable-libcaca --enable-libcdio --enable-libcodec2 --enable-libflite --enable-libfontconfig --enable-libfreetype --enable-libfribidi --enable-libgme --enable-libgsm --enable-libjack --enable-libmp3lame --enable-libmysofa --enable-libopenjpeg --enable-libopenmpt --enable-libopus --enable-libpulse --enable-librsvg --enable-librubberband --enable-libshine --enable-libsnappy --enable-libsoxr --enable-libspeex --enable-libssh --enable-libtheora --enable-libtwolame --enable-libvidstab --enable-libvorbis --enable-libvpx --enable-libwavpack --enable-libwebp --enable-libx265 --enable-libxml2 --enable-libxvid --enable-libzmq --enable-libzvbi --enable-lv2 --enable-omx --enable-openal --enable-opencl --enable-opengl --enable-sdl2 --enable-libdc1394 --enable-libdrm --enable-libiec61883 --enable-nvenc --enable-chromaprint --enable-frei0r --enable-libx264 --enable-shared
  WARNING: library configuration mismatch
  avcodec     configuration: --prefix=/usr --extra-version=1ubuntu0.1 --toolchain=hardened --libdir=/usr/lib/x86_64-linux-gnu --incdir=/usr/include/x86_64-linux-gnu --arch=amd64 --enable-gpl --disable-stripping --enable-avresample --disable-filter=resample --enable-avisynth --enable-gnutls --enable-ladspa --enable-libaom --enable-libass --enable-libbluray --enable-libbs2b --enable-libcaca --enable-libcdio --enable-libcodec2 --enable-libflite --enable-libfontconfig --enable-libfreetype --enable-libfribidi --enable-libgme --enable-libgsm --enable-libjack --enable-libmp3lame --enable-libmysofa --enable-libopenjpeg --enable-libopenmpt --enable-libopus --enable-libpulse --enable-librsvg --enable-librubberband --enable-libshine --enable-libsnappy --enable-libsoxr --enable-libspeex --enable-libssh --enable-libtheora --enable-libtwolame --enable-libvidstab --enable-libvorbis --enable-libvpx --enable-libwavpack --enable-libwebp --enable-libx265 --enable-libxml2 --enable-libxvid --enable-libzmq --enable-libzvbi --enable-lv2 --enable-omx --enable-openal --enable-opencl --enable-opengl --enable-sdl2 --enable-libdc1394 --enable-libdrm --enable-libiec61883 --enable-nvenc --enable-chromaprint --enable-frei0r --enable-libx264 --enable-shared --enable-version3 --disable-doc --disable-programs --enable-libaribb24 --enable-liblensfun --enable-libopencore_amrnb --enable-libopencore_amrwb --enable-libtesseract --enable-libvo_amrwbenc
  libavutil      56. 31.100 / 56. 31.100
  libavcodec     58. 54.100 / 58. 54.100
  libavformat    58. 29.100 / 58. 29.100
  libavdevice    58.  8.100 / 58.  8.100
  libavfilter     7. 57.100 /  7. 57.100
  libavresample   4.  0.  0 /  4.  0.  0
  libswscale      5.  5.100 /  5.  5.100
  libswresample   3.  5.100 /  3.  5.100
  libpostproc    55.  5.100 / 55.  5.100
Input #0, image2pipe, from 'pipe:':
  Duration: N/A, bitrate: N/A
    Stream #0:0: Video: ppm, rgb24, 320x240, 20 fps, 20 tbr, 20 tbn, 20 tbc
Stream mapping:
  Stream #0:0 -> #0:0 (ppm (native) -> h264 (libx264))
[libx264 @ 0x55760280df40] using cpu capabilities: MMX2 SSE2Fast SSSE3 SSE4.2 AVX FMA3 BMI2 AVX2
[libx264 @ 0x55760280df40] profile High, level 1.3
[libx264 @ 0x55760280df40] 264 - core 155 r2917 0a84d98 - H.264/MPEG-4 AVC codec - Copyleft 2003-2018 - http://www.videolan.org/x264.html - options: cabac=1 ref=3 deblock=1:0:0 analyse=0x3:0x113 me=hex subme=7 psy=1 psy_rd=1.00:0.00 mixed_ref=1 me_range=16 chroma_me=1 trellis=1 8x8dct=1 cqm=0 deadzone=21,11 fast_pskip=1 chroma_qp_offset=-2 threads=7 lookahead_threads=1 sliced_threads=0 nr=0 decimate=1 interlaced=0 bluray_compat=0 constrained_intra=0 bframes=3 b_pyramid=2 b_adapt=1 b_bias=0 direct=1 weightb=1 open_gop=0 weightp=2 keyint=250 keyint_min=20 scenecut=40 intra_refresh=0 rc_lookahead=40 rc=abr mbtree=1 bitrate=400 ratetol=1.0 qcomp=0.60 qpmin=0 qpmax=69 qpstep=4 ip_ratio=1.40 aq=1:1.00
Output #0, mp4, to './mission_records/d78df922-e88d-4516-95fd-7567e42c0d5c/video.mp4':
  Metadata:
    encoder         : Lavf58.29.100
    Stream #0:0: Video: h264 (libx264) (avc1 / 0x31637661), yuv420p, 320x240, q=-1--1, 400 kb/s, 20 fps, 10240 tbn, 20 tbc
    Metadata:
      encoder         : Lavc58.54.100 libx264
    Side data:
      cpb: bitrate max/min/avg: 0/0/400000 buffer size: 0 vbv_delay: -1
frame=   32 fps=0.0 q=0.0 size=       0kB time=00:00:00.00 bitrate=N/A speed=   0x    frame=   41 fps= 37 q=0.0 size=       0kB time=00:00:00.00 bitrate=N/A speed=   0x    frame=   50 fps= 31 q=0.0 size=       0kB time=00:00:00.00 bitrate=N/A speed=   0x    frame=   59 fps= 28 q=28.0 size=       0kB time=00:00:00.25 bitrate=   1.5kbits/s speed=0.117x    frame=   68 fps= 25 q=25.0 size=       0kB time=00:00:00.70 bitrate=   0.5kbits/s speed=0.263x    frame=   77 fps= 24 q=24.0 size=       0kB time=00:00:01.15 bitrate=   0.3kbits/s speed=0.362x    frame=   86 fps= 23 q=22.0 size=       0kB time=00:00:01.60 bitrate=   0.2kbits/s speed=0.433x    frame=   96 fps= 23 q=20.0 size=       0kB time=00:00:02.10 bitrate=   0.2kbits/s speed=0.495x    frame=  105 fps= 22 q=20.0 size=       0kB time=00:00:02.55 bitrate=   0.2kbits/s speed=0.533x    frame=  114 fps= 22 q=19.0 size=       0kB time=00:00:03.00 bitrate=   0.1kbits/s speed=0.566x    frame=  124 fps= 21 q=19.0 size=       0kB time=00:00:03.50 bitrate=   0.1kbits/s speed=0.598x    frame=  133 fps= 21 q=18.0 size=       0kB time=00:00:03.95 bitrate=   0.1kbits/s speed=0.62x    frame=  142 fps= 21 q=18.0 size=       0kB time=00:00:04.40 bitrate=   0.1kbits/s speed=0.639x    frame=  151 fps= 20 q=18.0 size=       0kB time=00:00:04.85 bitrate=   0.1kbits/s speed=0.653x    frame=  160 fps= 20 q=18.0 size=       0kB time=00:00:05.30 bitrate=   0.1kbits/s speed=0.667x    frame=  169 fps= 20 q=18.0 size=       0kB time=00:00:05.75 bitrate=   0.1kbits/s speed=0.679x    frame=  177 fps= 20 q=-1.0 Lsize=     361kB time=00:00:08.70 bitrate= 339.9kbits/s speed=0.962x    
video:358kB audio:0kB subtitle:0kB other streams:0kB global headers:0kB muxing overhead: 0.802400%
[libx264 @ 0x55760280df40] frame I:1     Avg QP:22.31  size:  7663
[libx264 @ 0x55760280df40] frame P:49    Avg QP:11.61  size:  5036
[libx264 @ 0x55760280df40] frame B:127   Avg QP:17.54  size:   878
[libx264 @ 0x55760280df40] consecutive B-frames:  1.7%  6.8%  3.4% 88.1%
[libx264 @ 0x55760280df40] mb I  I16..4: 22.0% 53.0% 25.0%
[libx264 @ 0x55760280df40] mb P  I16..4:  3.7%  1.8%  0.9%  P16..4: 52.6%  7.5% 14.0%  0.0%  0.0%    skip:19.5%
[libx264 @ 0x55760280df40] mb B  I16..4:  0.1%  0.0%  0.0%  B16..8: 22.8%  2.2%  1.9%  direct: 5.4%  skip:67.5%  L0:46.6% L1:48.8% BI: 4.6%
[libx264 @ 0x55760280df40] final ratefactor: 14.28
[libx264 @ 0x55760280df40] 8x8 transform intra:32.8% inter:49.0%
[libx264 @ 0x55760280df40] coded y,uvDC,uvAC intra: 43.8% 40.6% 29.7% inter: 18.3% 18.3% 10.3%
[libx264 @ 0x55760280df40] i16 v,h,dc,p:  3% 62% 34%  1%
[libx264 @ 0x55760280df40] i8 v,h,dc,ddl,ddr,vr,hd,vl,hu:  6% 19% 34%  7%  6%  4%  7%  5% 12%
[libx264 @ 0x55760280df40] i4 v,h,dc,ddl,ddr,vr,hd,vl,hu: 14% 34% 19%  4%  6%  5%  7%  5%  7%
[libx264 @ 0x55760280df40] i8c dc,h,v,p: 42% 52%  4%  2%
[libx264 @ 0x55760280df40] Weighted P-Frames: Y:20.4% UV:6.1%
[libx264 @ 0x55760280df40] ref P L0: 77.5%  7.0% 10.1%  5.0%  0.5%
[libx264 @ 0x55760280df40] ref B L0: 89.4%  9.3%  1.3%
[libx264 @ 0x55760280df40] ref B L1: 93.3%  6.7%
[libx264 @ 0x55760280df40] kb/s:330.80
